# MagicaVoxel @ Ephtracy

# group
o 

# material
mtllib mina.mtl
usemtl palette

# normals
vn -1 0 0
vn 1 0 0
vn 0 0 1
vn 0 0 -1
vn 0 -1 0
vn 0 1 0

# texcoords
vt 0.279297 0.5
vt 0.373047 0.5
vt 0.994141 0.5

# verts
v -1.4 0 1.4
v -1.4 0 -1.6
v -1.4 0.1 1.4
v -1.4 0.1 -1.6
v -1.3 0.1 1.3
v -1.3 0.1 -1.5
v -1.3 0.2 1.3
v -1.3 0.2 -1.5
v -1.2 0.2 1.2
v -1.2 0.2 -1.4
v -1.2 0.5 1.2
v -1.2 0.5 -1.4
v 1.4 0.2 1.2
v 1.4 0.2 -1.4
v 1.4 0.5 1.2
v 1.4 0.5 -1.4
v 1.5 0.1 1.3
v 1.5 0.1 -1.5
v 1.5 0.2 1.3
v 1.5 0.2 -1.5
v 1.6 0 1.4
v 1.6 0 -1.6
v 1.6 0.1 1.4
v 1.6 0.1 -1.6
v -1.4 0 1.4
v -1.4 0.1 1.4
v 1.6 0 1.4
v 1.6 0.1 1.4
v -1.3 0.1 1.3
v -1.3 0.2 1.3
v 1.5 0.1 1.3
v 1.5 0.2 1.3
v -1.2 0.2 1.2
v -1.2 0.5 1.2
v 1.4 0.2 1.2
v 1.4 0.5 1.2
v -1.2 0.2 -1.4
v -1.2 0.5 -1.4
v 1.4 0.2 -1.4
v 1.4 0.5 -1.4
v -1.3 0.1 -1.5
v -1.3 0.2 -1.5
v 1.5 0.1 -1.5
v 1.5 0.2 -1.5
v -1.4 0 -1.6
v -1.4 0.1 -1.6
v 1.6 0 -1.6
v 1.6 0.1 -1.6
v -1.4 0 1.4
v 1.6 0 1.4
v -1.4 0 -1.6
v 1.6 0 -1.6
v -1.4 0.1 1.4
v 1.6 0.1 1.4
v -1.3 0.1 1.3
v 1.5 0.1 1.3
v -1.3 0.1 -1.5
v 1.5 0.1 -1.5
v -1.4 0.1 -1.6
v 1.6 0.1 -1.6
v -1.3 0.2 1.3
v 1.5 0.2 1.3
v -1.2 0.2 1.2
v 1.4 0.2 1.2
v -1.2 0.2 -1.4
v 1.4 0.2 -1.4
v -1.3 0.2 -1.5
v 1.5 0.2 -1.5
v -1.2 0.5 1.2
v 1.4 0.5 1.2
v 0 0.5 0.2
v 0.1 0.5 0.2
v 0 0.5 -0.3
v 0.1 0.5 -0.3
v -1.2 0.5 -1.4
v 1.4 0.5 -1.4

# faces
f 3/2/1 2/2/1 1/2/1
f 4/2/1 2/2/1 3/2/1
f 7/2/1 6/2/1 5/2/1
f 8/2/1 6/2/1 7/2/1
f 11/3/1 10/3/1 9/3/1
f 12/3/1 10/3/1 11/3/1
f 13/3/2 14/3/2 15/3/2
f 15/3/2 14/3/2 16/3/2
f 17/2/2 18/2/2 19/2/2
f 19/2/2 18/2/2 20/2/2
f 21/2/2 22/2/2 23/2/2
f 23/2/2 22/2/2 24/2/2
f 27/2/3 26/2/3 25/2/3
f 28/2/3 26/2/3 27/2/3
f 31/2/3 30/2/3 29/2/3
f 32/2/3 30/2/3 31/2/3
f 35/3/3 34/3/3 33/3/3
f 36/3/3 34/3/3 35/3/3
f 37/3/4 38/3/4 39/3/4
f 39/3/4 38/3/4 40/3/4
f 41/2/4 42/2/4 43/2/4
f 43/2/4 42/2/4 44/2/4
f 45/2/4 46/2/4 47/2/4
f 47/2/4 46/2/4 48/2/4
f 51/2/5 50/2/5 49/2/5
f 52/2/5 50/2/5 51/2/5
f 53/2/6 54/2/6 55/2/6
f 55/2/6 54/2/6 56/2/6
f 53/2/6 55/2/6 57/2/6
f 56/2/6 54/2/6 58/2/6
f 53/2/6 57/2/6 59/2/6
f 57/2/6 58/2/6 59/2/6
f 58/2/6 54/2/6 60/2/6
f 59/2/6 58/2/6 60/2/6
f 61/2/6 62/2/6 63/2/6
f 63/2/6 62/2/6 64/2/6
f 61/2/6 63/2/6 65/2/6
f 64/2/6 62/2/6 66/2/6
f 61/2/6 65/2/6 67/2/6
f 65/2/6 66/2/6 67/2/6
f 66/2/6 62/2/6 68/2/6
f 67/2/6 66/2/6 68/2/6
f 69/3/6 70/3/6 71/3/6
f 71/3/6 70/3/6 72/3/6
f 69/3/6 71/3/6 73/3/6
f 71/1/6 72/1/6 73/1/6
f 72/3/6 70/3/6 74/3/6
f 73/1/6 72/1/6 74/1/6
f 69/3/6 73/3/6 75/3/6
f 73/3/6 74/3/6 75/3/6
f 74/3/6 70/3/6 76/3/6
f 75/3/6 74/3/6 76/3/6
